<svg width="39" height="38" viewBox="0 0 39 38" fill="none" xmlns="http://www.w3.org/2000/svg">
<path d="M23.3181 12.3955L25.1878 9.35721C25.409 8.9978 25.8008 8.77887 26.2228 8.77887C26.9676 8.77887 27.5372 9.44276 27.4239 10.1789L27.2202 11.5032C26.9998 12.9356 28.1081 14.2274 29.5574 14.2274H30.1356C32.2622 14.2274 33.6453 16.4654 32.6943 18.3675L31.7316 20.293C31.0216 21.7129 29.5703 22.6098 27.9828 22.6098H25.5437C24.4138 22.6098 23.4145 22.051 22.807 21.1946C22.8152 21.1087 22.8194 21.0215 22.8194 20.9334V14.2274C22.8194 13.95 22.7779 13.6822 22.7008 13.43C22.8494 13.1571 23.0472 12.8357 23.3181 12.3955Z" fill="url(#paint0_linear_26_1707)"/>
<path d="M21.562 20.9334C21.562 21.7435 20.9053 22.4003 20.0951 22.4003C19.285 22.4003 18.6282 21.7435 18.6282 20.9334V14.2274C18.6282 13.4173 19.285 12.7605 20.0951 12.7605C20.9053 12.7605 21.562 13.4173 21.562 14.2274V20.9334Z" fill="url(#paint1_linear_26_1707)"/>
<g filter="url(#filter0_b_26_1707)">
<circle cx="15.8872" cy="15.8872" r="14.8872" fill="#29ACD6" fill-opacity="0.35"/>
<circle cx="15.8872" cy="15.8872" r="15.3872" stroke="url(#paint2_linear_26_1707)" stroke-linecap="round"/>
</g>
<g filter="url(#filter1_d_26_1707)">
<path d="M12.804 10.9651L15.2642 6.98773C15.5552 6.51723 16.0708 6.23062 16.6261 6.23062C17.6061 6.23062 18.3556 7.09972 18.2065 8.06342L17.9385 9.79696C17.6485 11.6722 19.1068 13.3633 21.0138 13.3633H21.7746C24.5729 13.3633 26.3929 16.293 25.1414 18.7831L23.8747 21.3037C22.9405 23.1625 21.0309 24.3366 18.942 24.3366H15.7325C14.2458 24.3366 12.9309 23.605 12.1316 22.484C12.1424 22.3714 12.1479 22.2573 12.1479 22.142V13.3633C12.1479 13.0001 12.0933 12.6495 11.9918 12.3194C12.1873 11.9621 12.4476 11.5414 12.804 10.9651Z" fill="url(#paint3_linear_26_1707)"/>
<path d="M10.4934 22.142C10.4934 23.2025 9.62921 24.0623 8.56319 24.0623C7.49716 24.0623 6.63298 23.2025 6.63298 22.142V13.3633C6.63298 12.3027 7.49716 11.443 8.56319 11.443C9.62921 11.443 10.4934 12.3027 10.4934 13.3633V22.142Z" fill="url(#paint4_linear_26_1707)"/>
</g>
<defs>
<filter id="filter0_b_26_1707" x="-24" y="-24" width="79.7743" height="79.7743" filterUnits="userSpaceOnUse" color-interpolation-filters="sRGB">
<feFlood flood-opacity="0" result="BackgroundImageFix"/>
<feGaussianBlur in="BackgroundImageFix" stdDeviation="12"/>
<feComposite in2="SourceAlpha" operator="in" result="effect1_backgroundBlur_26_1707"/>
<feBlend mode="normal" in="SourceGraphic" in2="effect1_backgroundBlur_26_1707" result="shape"/>
</filter>
<filter id="filter1_d_26_1707" x="3.63298" y="3.23062" width="34.9107" height="34.106" filterUnits="userSpaceOnUse" color-interpolation-filters="sRGB">
<feFlood flood-opacity="0" result="BackgroundImageFix"/>
<feColorMatrix in="SourceAlpha" type="matrix" values="0 0 0 0 0 0 0 0 0 0 0 0 0 0 0 0 0 0 127 0" result="hardAlpha"/>
<feOffset dx="5" dy="5"/>
<feGaussianBlur stdDeviation="4"/>
<feColorMatrix type="matrix" values="0 0 0 0 0.176471 0 0 0 0 0.556863 0 0 0 0 0.678431 0 0 0 0.5 0"/>
<feBlend mode="normal" in2="BackgroundImageFix" result="effect1_dropShadow_26_1707"/>
<feBlend mode="normal" in="SourceGraphic" in2="effect1_dropShadow_26_1707" result="shape"/>
</filter>
<linearGradient id="paint0_linear_26_1707" x1="18.6282" y1="22.6098" x2="32.7671" y2="8.54477" gradientUnits="userSpaceOnUse">
<stop stop-color="#207894"/>
<stop offset="1" stop-color="#2ECDFF"/>
</linearGradient>
<linearGradient id="paint1_linear_26_1707" x1="18.6282" y1="22.6098" x2="32.7671" y2="8.54477" gradientUnits="userSpaceOnUse">
<stop stop-color="#207894"/>
<stop offset="1" stop-color="#2ECDFF"/>
</linearGradient>
<linearGradient id="paint2_linear_26_1707" x1="1" y1="1" x2="30.7894" y2="30.7592" gradientUnits="userSpaceOnUse">
<stop stop-color="white" stop-opacity="0.25"/>
<stop offset="1" stop-color="white" stop-opacity="0"/>
</linearGradient>
<linearGradient id="paint3_linear_26_1707" x1="16.2476" y1="28.194" x2="41.2348" y2="2.61173" gradientUnits="userSpaceOnUse">
<stop stop-color="white"/>
<stop offset="1" stop-color="white" stop-opacity="0.2"/>
</linearGradient>
<linearGradient id="paint4_linear_26_1707" x1="16.2476" y1="28.194" x2="41.2348" y2="2.61173" gradientUnits="userSpaceOnUse">
<stop stop-color="white"/>
<stop offset="1" stop-color="white" stop-opacity="0.2"/>
</linearGradient>
</defs>
</svg>
