<svg width="32" height="31" viewBox="0 0 32 31" fill="none" xmlns="http://www.w3.org/2000/svg">
<circle cx="23.1111" cy="21.3334" r="8.88889" fill="url(#paint0_linear_26_1536)"/>
<g clip-path="url(#clip0_26_1536)">
<g filter="url(#filter0_b_26_1536)">
<path fill-rule="evenodd" clip-rule="evenodd" d="M5.99831 3.50212C6.12292 3.41159 6.25179 3.32829 6.3857 3.25166C6.42872 3.34747 6.48956 3.43722 6.56823 3.51589C8.09778 5.04537 9.29837 6.24405 10.3567 7.0911C11.4281 7.94863 12.4315 8.51151 13.5876 8.69461C14.2939 8.80648 15.0134 8.80648 15.7197 8.69461C16.8435 8.51663 17.8228 7.97987 18.8607 7.16247C19.8854 6.35549 21.0357 5.2181 22.4838 3.77111C22.5302 3.72468 22.5705 3.67439 22.6045 3.62128C23.0424 3.96238 23.4305 4.36352 23.7571 4.81312C24.8889 6.37085 24.8889 8.59291 24.8889 13.037V15.4074C24.8889 19.8515 24.8889 22.0736 23.7571 23.6313C23.3916 24.1344 22.9492 24.5768 22.4461 24.9423C20.8884 26.0741 18.6663 26.0741 14.2222 26.0741C9.7781 26.0741 7.55603 26.0741 5.99831 24.9423C5.49523 24.5768 5.05282 24.1344 4.68731 23.6313C3.55556 22.0736 3.55556 19.8515 3.55556 15.4074V13.037C3.55556 8.59291 3.55556 6.37085 4.68731 4.81312C5.05282 4.31005 5.49523 3.86763 5.99831 3.50212Z" fill="#E3E742" fill-opacity="0.6"/>
<path d="M14.2222 2.37037C17.4221 2.37037 19.47 2.37037 20.9474 2.79286C19.6196 4.1172 18.6264 5.08414 17.7608 5.76581C16.8487 6.48408 16.1496 6.82658 15.4416 6.93872C14.9196 7.0214 14.3877 7.0214 13.8657 6.93872C13.1373 6.82336 12.4186 6.46429 11.4676 5.70313C10.5821 4.99442 9.56328 3.99458 8.19745 2.63073C9.61035 2.37037 11.4992 2.37037 14.2222 2.37037Z" fill="#E3E742" fill-opacity="0.6"/>
<path d="M6.84184 3.04687L6.61598 2.54381L6.13737 2.81769C5.98782 2.90327 5.84374 2.99639 5.70442 3.09761C5.15889 3.49396 4.67915 3.97371 4.2828 4.51923C3.64468 5.39753 3.34601 6.44053 3.19994 7.78882C3.05555 9.12147 3.05555 10.8102 3.05556 13.006V13.037V15.4074V15.4385C3.05555 17.6343 3.05555 19.323 3.19994 20.6556C3.34601 22.0039 3.64468 23.0469 4.2828 23.9252L4.67938 23.6371L4.2828 23.9252C4.67915 24.4707 5.15889 24.9505 5.70442 25.3468C6.58272 25.985 7.62572 26.2836 8.97401 26.4297C10.3067 26.5741 11.9954 26.5741 14.1911 26.5741H14.2222H14.2533C16.4491 26.5741 18.1378 26.5741 19.4704 26.4297C20.8187 26.2836 21.8617 25.985 22.74 25.3468C23.2856 24.9505 23.7653 24.4707 24.1616 23.9252C24.7998 23.0469 25.0984 22.0039 25.2445 20.6556C25.3889 19.323 25.3889 17.6343 25.3889 15.4385V15.4074V13.037V13.0059C25.3889 10.8102 25.3889 9.12147 25.2445 7.78882C25.0984 6.44053 24.7998 5.39753 24.1616 4.51923C23.8074 4.0317 23.3866 3.5967 22.9117 3.22682L22.4793 2.88994L22.1835 3.35153C22.1688 3.37452 22.1511 3.39663 22.1303 3.41743C20.6762 4.87048 19.5481 5.98468 18.5514 6.76966C17.5488 7.55919 16.6483 8.0413 15.6415 8.20077C14.987 8.30443 14.3203 8.30443 13.6658 8.20077C12.63 8.03672 11.7067 7.53116 10.6691 6.70073C9.63727 5.87487 8.45869 4.69917 6.92178 3.16233C6.88672 3.12726 6.86036 3.08812 6.84184 3.04687ZM21.3005 3.14687L21.9029 2.54606L21.0849 2.31213C19.5398 1.87028 17.4332 1.87032 14.3238 1.87037L14.2222 1.87037L14.1621 1.87037C11.4913 1.87036 9.56481 1.87034 8.10684 2.13901L7.17024 2.31159L7.84415 2.98453C9.20512 4.34354 10.2441 5.36432 11.1551 6.0935C12.14 6.88176 12.9388 7.29815 13.7875 7.43256C14.3613 7.52346 14.9459 7.52346 15.5198 7.43256C16.3448 7.30191 17.1227 6.90478 18.0701 6.15862C18.9628 5.45562 19.9769 4.46703 21.3005 3.14687Z" stroke="url(#paint1_linear_26_1536)" stroke-linecap="round"/>
</g>
<g filter="url(#filter1_d_26_1536)">
<path fill-rule="evenodd" clip-rule="evenodd" d="M11.8518 13.3333C11.3609 13.3333 10.963 13.7313 10.963 14.2222C10.963 14.7131 11.3609 15.1111 11.8518 15.1111H16.5926C17.0835 15.1111 17.4815 14.7131 17.4815 14.2222C17.4815 13.7313 17.0835 13.3333 16.5926 13.3333H11.8518ZM9.48148 18.0741C8.99056 18.0741 8.59259 18.472 8.59259 18.963C8.59259 19.4539 8.99056 19.8519 9.48148 19.8519H18.963C19.4539 19.8519 19.8518 19.4539 19.8518 18.963C19.8518 18.472 19.4539 18.0741 18.963 18.0741H9.48148Z" fill="url(#paint2_linear_26_1536)"/>
</g>
</g>
<defs>
<filter id="filter0_b_26_1536" x="-21.4444" y="-22.6296" width="71.3333" height="73.7037" filterUnits="userSpaceOnUse" color-interpolation-filters="sRGB">
<feFlood flood-opacity="0" result="BackgroundImageFix"/>
<feGaussianBlur in="BackgroundImageFix" stdDeviation="12"/>
<feComposite in2="SourceAlpha" operator="in" result="effect1_backgroundBlur_26_1536"/>
<feBlend mode="normal" in="SourceGraphic" in2="effect1_backgroundBlur_26_1536" result="shape"/>
</filter>
<filter id="filter1_d_26_1536" x="5.33676" y="10.0775" width="24.2826" height="19.5418" filterUnits="userSpaceOnUse" color-interpolation-filters="sRGB">
<feFlood flood-opacity="0" result="BackgroundImageFix"/>
<feColorMatrix in="SourceAlpha" type="matrix" values="0 0 0 0 0 0 0 0 0 0 0 0 0 0 0 0 0 0 127 0" result="hardAlpha"/>
<feOffset dx="3.25583" dy="3.25583"/>
<feGaussianBlur stdDeviation="3.25583"/>
<feColorMatrix type="matrix" values="0 0 0 0 0.152941 0 0 0 0 0.784314 0 0 0 0 0.235294 0 0 0 0.5 0"/>
<feBlend mode="normal" in2="BackgroundImageFix" result="effect1_dropShadow_26_1536"/>
<feBlend mode="normal" in="SourceGraphic" in2="effect1_dropShadow_26_1536" result="shape"/>
</filter>
<linearGradient id="paint0_linear_26_1536" x1="14.2222" y1="30.2223" x2="32.3788" y2="12.8402" gradientUnits="userSpaceOnUse">
<stop stop-color="#919420"/>
<stop offset="1" stop-color="#FFEA2E"/>
</linearGradient>
<linearGradient id="paint1_linear_26_1536" x1="3.55556" y1="2.37037" x2="27.1377" y2="23.5728" gradientUnits="userSpaceOnUse">
<stop stop-color="white" stop-opacity="0.25"/>
<stop offset="1" stop-color="white" stop-opacity="0"/>
</linearGradient>
<linearGradient id="paint2_linear_26_1536" x1="14.317" y1="21.2406" x2="22.1973" y2="7.89802" gradientUnits="userSpaceOnUse">
<stop stop-color="white"/>
<stop offset="1" stop-color="white" stop-opacity="0.2"/>
</linearGradient>
<clipPath id="clip0_26_1536">
<rect width="28.4444" height="28.4444" fill="white"/>
</clipPath>
</defs>
</svg>
