<svg width="32" height="29" viewBox="0 0 32 29" fill="none" xmlns="http://www.w3.org/2000/svg">
<circle cx="8.88889" cy="9.6" r="8.88889" fill="url(#paint0_linear_26_1692)"/>
<g clip-path="url(#clip0_26_1692)">
<g filter="url(#filter0_b_26_1692)">
<path d="M17.7778 1.77779C19.9837 1.77779 21.0867 1.77779 21.9793 2.06782C23.5415 2.57539 24.8115 3.70395 25.5046 5.16876C24.7695 4.85305 23.9431 4.68158 22.9949 4.58336C21.6537 4.44444 19.9688 4.44444 17.8285 4.44445H17.727C15.5868 4.44444 13.902 4.44444 12.5608 4.58334C11.6125 4.68156 10.7861 4.85304 10.051 5.16877C10.7441 3.70395 12.014 2.57539 13.5762 2.06782C14.4688 1.77779 15.5718 1.77779 17.7778 1.77779Z" fill="#27C7A3" fill-opacity="0.35"/>
<path fill-rule="evenodd" clip-rule="evenodd" d="M8.24286 7.77609C7.11111 9.33382 7.11111 11.5559 7.11111 16C7.11111 20.4441 7.11111 22.6662 8.24286 24.2239C8.60837 24.727 9.05079 25.1694 9.55386 25.5349C11.1116 26.6667 13.3337 26.6667 17.7778 26.6667C22.2219 26.6667 24.444 26.6667 26.0017 25.5349C26.5048 25.1694 26.9472 24.727 27.3127 24.2239C28.4444 22.6662 28.4444 20.4441 28.4444 16C28.4444 11.5559 28.4444 9.33382 27.3127 7.77609C26.9472 7.27302 26.5048 6.8306 26.0017 6.46509C25.9744 6.4453 25.947 6.42585 25.9193 6.40675C24.3656 5.33334 22.1442 5.33334 17.7778 5.33334C13.4115 5.33334 11.1901 5.33334 9.63636 6.40664C9.60865 6.42578 9.58116 6.44526 9.55386 6.46509C9.05079 6.8306 8.60837 7.27302 8.24286 7.77609Z" fill="#27C7A3" fill-opacity="0.35"/>
<path d="M26.2684 6.041L26.5219 6.14988L25.9565 4.95491C25.2049 3.36649 23.8278 2.1427 22.1339 1.59229C21.1654 1.27761 19.9896 1.27767 17.8982 1.27778C17.8584 1.27778 17.8182 1.27779 17.7778 1.27779C17.7373 1.27779 17.6972 1.27778 17.6574 1.27778C15.5659 1.27767 14.3902 1.27761 13.4217 1.59229C11.7277 2.1427 10.3506 3.36649 9.59901 4.95492L9.03359 6.1499L9.28712 6.04101C9.27805 6.0475 9.269 6.05402 9.25997 6.06058C8.71445 6.45693 8.2347 6.93668 7.83835 7.4822C7.20023 8.3605 6.90157 9.4035 6.75549 10.7518C6.6111 12.0844 6.61111 13.7732 6.61111 15.9689V16V16.0311C6.61111 18.2269 6.6111 19.9156 6.75549 21.2482C6.90157 22.5965 7.20023 23.6395 7.83835 24.5178C8.2347 25.0633 8.71444 25.5431 9.25997 25.9394C10.1383 26.5776 11.1813 26.8762 12.5296 27.0223C13.8622 27.1667 15.5509 27.1667 17.7467 27.1667H17.7778H17.8089C20.0046 27.1667 21.6933 27.1667 23.026 27.0223C24.3743 26.8762 25.4173 26.5776 26.2956 25.9394C26.8411 25.5431 27.3209 25.0633 27.7172 24.5178C28.3553 23.6395 28.654 22.5965 28.8001 21.2482C28.9445 19.9156 28.9444 18.2269 28.9444 16.0311V16V15.9689C28.9444 13.7731 28.9445 12.0844 28.8001 10.7518C28.654 9.4035 28.3553 8.3605 27.7172 7.4822C27.3209 6.93667 26.8411 6.45693 26.2956 6.06058C26.2866 6.05402 26.2775 6.04749 26.2684 6.041Z" stroke="url(#paint1_linear_26_1692)" stroke-linecap="round"/>
</g>
<g filter="url(#filter1_d_26_1692)">
<path d="M13.037 17.4815C12.5461 17.4815 12.1481 17.8795 12.1481 18.3704C12.1481 18.8613 12.5461 19.2593 13.037 19.2593H22.5185C23.0094 19.2593 23.4074 18.8613 23.4074 18.3704C23.4074 17.8795 23.0094 17.4815 22.5185 17.4815H13.037Z" fill="url(#paint2_linear_26_1692)"/>
</g>
</g>
<defs>
<filter id="filter0_b_26_1692" x="-17.8889" y="-23.2223" width="71.3333" height="74.8889" filterUnits="userSpaceOnUse" color-interpolation-filters="sRGB">
<feFlood flood-opacity="0" result="BackgroundImageFix"/>
<feGaussianBlur in="BackgroundImageFix" stdDeviation="12"/>
<feComposite in2="SourceAlpha" operator="in" result="effect1_backgroundBlur_26_1692"/>
<feBlend mode="normal" in="SourceGraphic" in2="effect1_backgroundBlur_26_1692" result="shape"/>
</filter>
<filter id="filter1_d_26_1692" x="9.14813" y="14.4815" width="27.2593" height="17.7778" filterUnits="userSpaceOnUse" color-interpolation-filters="sRGB">
<feFlood flood-opacity="0" result="BackgroundImageFix"/>
<feColorMatrix in="SourceAlpha" type="matrix" values="0 0 0 0 0 0 0 0 0 0 0 0 0 0 0 0 0 0 127 0" result="hardAlpha"/>
<feOffset dx="5" dy="5"/>
<feGaussianBlur stdDeviation="4"/>
<feColorMatrix type="matrix" values="0 0 0 0 0.176471 0 0 0 0 0.556863 0 0 0 0 0.678431 0 0 0 0.5 0"/>
<feBlend mode="normal" in2="BackgroundImageFix" result="effect1_dropShadow_26_1692"/>
<feBlend mode="normal" in="SourceGraphic" in2="effect1_dropShadow_26_1692" result="shape"/>
</filter>
<linearGradient id="paint0_linear_26_1692" x1="7.14397e-08" y1="18.4889" x2="18.1566" y2="1.1068" gradientUnits="userSpaceOnUse">
<stop stop-color="#209471"/>
<stop offset="1" stop-color="#2EFFD9"/>
</linearGradient>
<linearGradient id="paint1_linear_26_1692" x1="7.11111" y1="1.77779" x2="31.7158" y2="22.8462" gradientUnits="userSpaceOnUse">
<stop stop-color="white" stop-opacity="0.25"/>
<stop offset="1" stop-color="white" stop-opacity="0"/>
</linearGradient>
<linearGradient id="paint2_linear_26_1692" x1="17.8726" y1="19.638" x2="18.6432" y2="14.8539" gradientUnits="userSpaceOnUse">
<stop stop-color="white"/>
<stop offset="1" stop-color="white" stop-opacity="0.2"/>
</linearGradient>
<clipPath id="clip0_26_1692">
<rect width="28.4444" height="28.4444" fill="white" transform="translate(3.55556)"/>
</clipPath>
</defs>
</svg>
