<svg width="32" height="30" viewBox="0 0 32 30" fill="none" xmlns="http://www.w3.org/2000/svg">
<g clip-path="url(#clip0_26_1731)">
<path d="M25.5951 1.90298C24.1728 -0.194359 21.0827 -0.194353 19.6604 1.90299L15.5768 7.92468C14.689 9.23369 14.6421 10.9435 15.4433 12.3029C17.043 15.017 21.0146 14.9879 22.5308 12.2085C22.5726 12.1317 22.6829 12.1317 22.7247 12.2085C24.2409 14.9879 28.2125 15.017 29.8122 12.3029C30.6135 10.9435 30.5665 9.23368 29.6788 7.92467L25.5951 1.90298Z" fill="url(#paint0_linear_26_1731)"/>
<path d="M23.2135 14.9724C23.2135 14.6489 22.9513 14.3866 22.6278 14.3866C22.3043 14.3866 22.042 14.6489 22.042 14.9724V16.5344C22.042 16.8579 22.3043 17.1202 22.6278 17.1202C22.9513 17.1202 23.2135 16.8579 23.2135 16.5344V14.9724Z" fill="url(#paint1_linear_26_1731)"/>
<path d="M20.2847 15.9486C20.6082 15.9486 20.8705 16.2109 20.8705 16.5344L20.8705 18.0964C20.8705 18.4199 20.6082 18.6822 20.2847 18.6822C19.9612 18.6822 19.699 18.4199 19.699 18.0964L19.699 16.5344C19.699 16.2109 19.9612 15.9486 20.2847 15.9486Z" fill="url(#paint2_linear_26_1731)"/>
<path d="M25.5566 16.5344C25.5566 16.2109 25.2943 15.9486 24.9708 15.9486C24.6473 15.9486 24.3851 16.2109 24.3851 16.5344V18.0964C24.3851 18.4199 24.6473 18.6822 24.9708 18.6822C25.2943 18.6822 25.5566 18.4199 25.5566 18.0964V16.5344Z" fill="url(#paint3_linear_26_1731)"/>
</g>
<g clip-path="url(#clip1_26_1731)">
<g filter="url(#filter0_b_26_1731)">
<path d="M19.7432 2.82921C17.4674 -0.526533 12.5234 -0.526523 10.2476 2.82922L3.71381 12.4639C2.29347 14.5583 2.21828 17.294 3.50027 19.469C6.05983 23.8116 12.4144 23.7651 14.8402 19.318C14.9072 19.1952 15.0836 19.1952 15.1506 19.318C17.5765 23.7651 23.931 23.8116 26.4906 19.4691C27.7726 17.294 27.6974 14.5583 26.277 12.4639L19.7432 2.82921Z" fill="#FF20D4" fill-opacity="0.54"/>
<path d="M15.9327 23.7402C15.9327 23.2226 15.513 22.803 14.9954 22.803C14.4778 22.803 14.0582 23.2226 14.0582 23.7402V26.2395C14.0582 26.7571 14.4778 27.1767 14.9954 27.1767C15.513 27.1767 15.9327 26.7571 15.9327 26.2395V23.7402Z" fill="#FF20D4" fill-opacity="0.54"/>
<path d="M11.2466 25.3023C11.7642 25.3023 12.1838 25.7219 12.1838 26.2395L12.1838 28.7387C12.1838 29.2563 11.7642 29.6759 11.2466 29.6759C10.7289 29.6759 10.3093 29.2563 10.3093 28.7387L10.3093 26.2395C10.3093 25.7219 10.7289 25.3023 11.2466 25.3023Z" fill="#FF20D4" fill-opacity="0.54"/>
<path d="M19.6815 26.2395C19.6815 25.7219 19.2619 25.3023 18.7443 25.3023C18.2267 25.3023 17.8071 25.7219 17.8071 26.2395V28.7387C17.8071 29.2563 18.2267 29.6759 18.7443 29.6759C19.2619 29.6759 19.6815 29.2563 19.6815 28.7387V26.2395Z" fill="#FF20D4" fill-opacity="0.54"/>
<path d="M19.7432 2.82921C17.4674 -0.526533 12.5234 -0.526523 10.2476 2.82922L3.71381 12.4639C2.29347 14.5583 2.21828 17.294 3.50027 19.469C6.05983 23.8116 12.4144 23.7651 14.8402 19.318C14.9072 19.1952 15.0836 19.1952 15.1506 19.318C17.5765 23.7651 23.931 23.8116 26.4906 19.4691C27.7726 17.294 27.6974 14.5583 26.277 12.4639L19.7432 2.82921Z" stroke="url(#paint4_linear_26_1731)" stroke-linecap="round"/>
<path d="M15.9327 23.7402C15.9327 23.2226 15.513 22.803 14.9954 22.803C14.4778 22.803 14.0582 23.2226 14.0582 23.7402V26.2395C14.0582 26.7571 14.4778 27.1767 14.9954 27.1767C15.513 27.1767 15.9327 26.7571 15.9327 26.2395V23.7402Z" stroke="url(#paint5_linear_26_1731)" stroke-linecap="round"/>
<path d="M11.2466 25.3023C11.7642 25.3023 12.1838 25.7219 12.1838 26.2395L12.1838 28.7387C12.1838 29.2563 11.7642 29.6759 11.2466 29.6759C10.7289 29.6759 10.3093 29.2563 10.3093 28.7387L10.3093 26.2395C10.3093 25.7219 10.7289 25.3023 11.2466 25.3023Z" stroke="url(#paint6_linear_26_1731)" stroke-linecap="round"/>
<path d="M19.6815 26.2395C19.6815 25.7219 19.2619 25.3023 18.7443 25.3023C18.2267 25.3023 17.8071 25.7219 17.8071 26.2395V28.7387C17.8071 29.2563 18.2267 29.6759 18.7443 29.6759C19.2619 29.6759 19.6815 29.2563 19.6815 28.7387V26.2395Z" stroke="url(#paint7_linear_26_1731)" stroke-linecap="round"/>
</g>
</g>
<defs>
<filter id="filter0_b_26_1731" x="-21.9092" y="-24.1876" width="73.8093" height="78.3635" filterUnits="userSpaceOnUse" color-interpolation-filters="sRGB">
<feFlood flood-opacity="0" result="BackgroundImageFix"/>
<feGaussianBlur in="BackgroundImageFix" stdDeviation="12"/>
<feComposite in2="SourceAlpha" operator="in" result="effect1_backgroundBlur_26_1731"/>
<feBlend mode="normal" in="SourceGraphic" in2="effect1_backgroundBlur_26_1731" result="shape"/>
</filter>
<linearGradient id="paint0_linear_26_1731" x1="14.8749" y1="18.6822" x2="33.2216" y2="3.84223" gradientUnits="userSpaceOnUse">
<stop stop-color="#94208F"/>
<stop offset="1" stop-color="#FF2EC5"/>
</linearGradient>
<linearGradient id="paint1_linear_26_1731" x1="14.8749" y1="18.6822" x2="33.2216" y2="3.84223" gradientUnits="userSpaceOnUse">
<stop stop-color="#94208F"/>
<stop offset="1" stop-color="#FF2EC5"/>
</linearGradient>
<linearGradient id="paint2_linear_26_1731" x1="14.8749" y1="18.6822" x2="33.2216" y2="3.84223" gradientUnits="userSpaceOnUse">
<stop stop-color="#94208F"/>
<stop offset="1" stop-color="#FF2EC5"/>
</linearGradient>
<linearGradient id="paint3_linear_26_1731" x1="14.8749" y1="18.6822" x2="33.2216" y2="3.84223" gradientUnits="userSpaceOnUse">
<stop stop-color="#94208F"/>
<stop offset="1" stop-color="#FF2EC5"/>
</linearGradient>
<linearGradient id="paint4_linear_26_1731" x1="2.59077" y1="0.312408" x2="31.5519" y2="24.757" gradientUnits="userSpaceOnUse">
<stop stop-color="white" stop-opacity="0.25"/>
<stop offset="1" stop-color="white" stop-opacity="0"/>
</linearGradient>
<linearGradient id="paint5_linear_26_1731" x1="2.59077" y1="0.312408" x2="31.5519" y2="24.757" gradientUnits="userSpaceOnUse">
<stop stop-color="white" stop-opacity="0.25"/>
<stop offset="1" stop-color="white" stop-opacity="0"/>
</linearGradient>
<linearGradient id="paint6_linear_26_1731" x1="2.59077" y1="0.312408" x2="31.5519" y2="24.757" gradientUnits="userSpaceOnUse">
<stop stop-color="white" stop-opacity="0.25"/>
<stop offset="1" stop-color="white" stop-opacity="0"/>
</linearGradient>
<linearGradient id="paint7_linear_26_1731" x1="2.59077" y1="0.312408" x2="31.5519" y2="24.757" gradientUnits="userSpaceOnUse">
<stop stop-color="white" stop-opacity="0.25"/>
<stop offset="1" stop-color="white" stop-opacity="0"/>
</linearGradient>
<clipPath id="clip0_26_1731">
<rect width="18.7444" height="18.7444" fill="white" transform="translate(13.2556 0.134727)"/>
</clipPath>
<clipPath id="clip1_26_1731">
<rect width="29.991" height="29.991" fill="white"/>
</clipPath>
</defs>
</svg>
