<svg width="31" height="30" viewBox="0 0 31 30" fill="none" xmlns="http://www.w3.org/2000/svg">
<path d="M15.0076 10.9375C13.9301 10.9375 12.8968 11.3655 12.1349 12.1274C11.3731 12.8892 10.9451 13.9226 10.9451 15C10.9451 16.0774 11.3731 17.1108 12.1349 17.8726C12.8968 18.6345 13.9301 19.0625 15.0076 19.0625C16.085 19.0625 17.1183 18.6345 17.8802 17.8726C18.6421 17.1108 19.0701 16.0774 19.0701 15C19.0701 13.9226 18.6421 12.8892 17.8802 12.1274C17.1183 11.3655 16.085 10.9375 15.0076 10.9375Z" fill="#F1F1F1" fill-opacity="0.6"/>
<path fill-rule="evenodd" clip-rule="evenodd" d="M8.47009 3.85251C12.8151 3.37088 17.2001 3.37088 21.5451 3.85251C23.9188 4.11751 25.8326 5.98626 26.1113 8.36876C26.6266 12.7746 26.6266 17.2254 26.1113 21.6313C25.8326 24.0138 23.9188 25.8825 21.5463 26.1488C17.2009 26.6305 12.8155 26.6305 8.47009 26.1488C6.09634 25.8825 4.18259 24.0138 3.90384 21.6325C3.3885 17.2263 3.3885 12.775 3.90384 8.36876C4.18259 5.98626 6.09634 4.11751 8.47009 3.85251ZM21.2576 7.5C20.9261 7.5 20.6081 7.6317 20.3737 7.86612C20.1393 8.10054 20.0076 8.41848 20.0076 8.75C20.0076 9.08153 20.1393 9.39947 20.3737 9.63389C20.6081 9.86831 20.9261 10 21.2576 10C21.5891 10 21.9071 9.86831 22.1415 9.63389C22.3759 9.39947 22.5076 9.08153 22.5076 8.75C22.5076 8.41848 22.3759 8.10054 22.1415 7.86612C21.9071 7.6317 21.5891 7.5 21.2576 7.5ZM9.07009 15C9.07009 13.4253 9.69565 11.9151 10.8091 10.8016C11.9226 9.68806 13.4329 9.0625 15.0076 9.0625C16.5823 9.0625 18.0925 9.68806 19.206 10.8016C20.3195 11.9151 20.9451 13.4253 20.9451 15C20.9451 16.5747 20.3195 18.085 19.206 19.1985C18.0925 20.3119 16.5823 20.9375 15.0076 20.9375C13.4329 20.9375 11.9226 20.3119 10.8091 19.1985C9.69565 18.085 9.07009 16.5747 9.07009 15Z" fill="#F1F1F1" fill-opacity="0.6"/>
</svg>
