<svg width="26" height="26" viewBox="0 0 26 26" fill="none" xmlns="http://www.w3.org/2000/svg">
<path d="M4.90663 0.5C2.21253 0.5 0.00756836 2.70491 0.00756836 5.39907V20.6017C0.00756836 23.2958 2.21248 25.5 4.90663 25.5H20.1093C22.8034 25.5 25.0076 23.2959 25.0076 20.6017V5.39907C25.0076 2.70496 22.8034 0.5 20.1093 0.5H4.90663ZM6.13882 4.6255C7.43059 4.6255 8.22626 5.47352 8.25082 6.58824C8.25082 7.67834 7.43054 8.55019 6.11384 8.55019H6.0896C4.82242 8.55019 4.00339 7.67839 4.00339 6.58824C4.00339 5.47355 4.84721 4.6255 6.1388 4.6255H6.13882ZM17.2707 9.83553C19.755 9.83553 21.6173 11.4593 21.6173 14.9487V21.4627H17.8419V15.3854C17.8419 13.8582 17.2954 12.8163 15.9291 12.8163C14.8861 12.8163 14.2643 13.5186 13.9914 14.197C13.8917 14.4397 13.8672 14.7787 13.8672 15.1182V21.4627H10.0917C10.0917 21.4627 10.1412 11.1679 10.0917 10.1019H13.8679V11.7107C14.3696 10.9367 15.2671 9.8355 17.2707 9.8355V9.83553ZM4.22609 10.1028H8.00156V21.4628H4.22609V10.1028Z" fill="#F1F1F1" fill-opacity="0.6"/>
</svg>
