<svg width="22" height="26" viewBox="0 0 22 26" fill="none" xmlns="http://www.w3.org/2000/svg">
<g clip-path="url(#clip0_75_374)">
<path d="M19.5413 2.0625H2.35376C1.05981 2.0625 0.0100098 3.1123 0.0100098 4.40625V21.5938C0.0100098 22.8877 1.05981 23.9375 2.35376 23.9375H19.5413C20.8352 23.9375 21.885 22.8877 21.885 21.5938V4.40625C21.885 3.1123 20.8352 2.0625 19.5413 2.0625ZM17.1536 9.81641C17.1633 9.95312 17.1633 10.0947 17.1633 10.2314C17.1633 14.4648 13.9407 19.3428 8.052 19.3428C6.2356 19.3428 4.55103 18.8154 3.13501 17.9072C3.3938 17.9365 3.64282 17.9463 3.90649 17.9463C5.40552 17.9463 6.78247 17.4385 7.8811 16.5791C6.47485 16.5498 5.29321 15.627 4.88794 14.3574C5.3811 14.4307 5.82544 14.4307 6.33325 14.2988C4.86841 14.001 3.76978 12.7119 3.76978 11.1543V11.1152C4.19458 11.3545 4.69263 11.501 5.21509 11.5205C4.77584 11.2283 4.41576 10.832 4.16698 10.3668C3.91819 9.90158 3.78844 9.38203 3.78931 8.85449C3.78931 8.25879 3.94556 7.71191 4.22388 7.23828C5.80103 9.18164 8.16919 10.4512 10.8254 10.5879C10.3713 8.41504 11.9973 6.65234 13.9504 6.65234C14.8733 6.65234 15.7034 7.03809 16.2893 7.66309C17.012 7.52637 17.7053 7.25781 18.3206 6.8916C18.0813 7.63379 17.5784 8.25879 16.9143 8.6543C17.5588 8.58594 18.1838 8.40527 18.76 8.15625C18.3254 8.7959 17.7786 9.3623 17.1536 9.81641Z" fill="#F1F1F1" fill-opacity="0.6"/>
</g>
<defs>
<clipPath id="clip0_75_374">
<rect width="21.88" height="25" fill="white" transform="translate(0.00756836 0.5)"/>
</clipPath>
</defs>
</svg>
